<?xml version="1.0" encoding="utf-8"?>
<!-- Generator: Adobe Illustrator 25.4.7, SVG Export Plug-In . SVG Version: 6.00 Build 0)  -->
<svg version="1.1" id="Layer_1" xmlns="http://www.w3.org/2000/svg" xmlns:xlink="http://www.w3.org/1999/xlink" x="0px" y="0px"
	 viewBox="0 0 228.2 224.5" style="enable-background:new 0 0 228.2 224.5;" xml:space="preserve">
<style type="text/css">
	.st0{fill:#6660E2;}
	.st1{fill:#1A2E35;}
</style>
<g id="Layer_2_00000042017108001744304410000011480445705426889383_">
	<g id="Layer_1-2">
		<path class="st0" d="M140.2,176.9c-2.8,0-5-2.2-5-5c0-0.6,0.1-1.1,0.3-1.7l14.5-41.4c0.6-1.8,0.5-3.7-0.5-5.3l-29.8-50.6
			c-1.7-3.1-5.6-4.1-8.7-2.4c-0.2,0.1-0.4,0.3-0.7,0.4c-0.7,0.5-1.3,1.2-1.8,2l-29.8,50.5c-1,1.6-1.1,3.6-0.5,5.3l14.5,41.5
			c0.9,2.6-0.5,5.5-3.1,6.4c-2.6,0.9-5.5-0.5-6.4-3.1l0,0l-14.5-41.4c-1.6-4.6-1.1-9.6,1.3-13.8L100,67.8c1.2-2,2.7-3.8,4.6-5.1
			c7.3-5.3,17.6-3.6,22.8,3.8c0.3,0.4,0.6,0.9,0.9,1.4l29.8,50.5c2.5,4.2,2.9,9.2,1.3,13.8l-14.5,41.4
			C144.2,175.5,142.3,176.9,140.2,176.9L140.2,176.9z"/>
		<path class="st0" d="M155.1,195.5h-82c-7.8-0.2-14-6.7-13.8-14.5c0.2-7.5,6.2-13.6,13.8-13.8h82c7.8-0.2,14.3,6,14.5,13.8
			c0.2,7.8-6,14.3-13.8,14.5C155.6,195.5,155.3,195.5,155.1,195.5z M73.1,177.2c-2.3,0.1-4,2.1-3.9,4.3c0.1,2.1,1.8,3.8,3.9,3.9h82
			c2.3,0.1,4.2-1.6,4.3-3.9c0.1-2.3-1.6-4.2-3.9-4.3c-0.1,0-0.3,0-0.4,0H73.1z"/>
		<path class="st0" d="M79.8,224.5c-2.8,0-5-2.2-5-5v-26.7c0-2.8,2.2-5,5-5s5,2.2,5,5v26.7C84.8,222.3,82.6,224.5,79.8,224.5z"/>
		<path class="st0" d="M148.4,224.5c-2.8,0-5-2.2-5-5v-26.7c0-2.8,2.2-5,5-5s5,2.2,5,5v26.7C153.4,222.3,151.2,224.5,148.4,224.5z"
			/>
		<path class="st0" d="M114.1,119.9c-2.8,0-5-2.2-5-5V67c0-2.8,2.2-5,5-5s5,2.2,5,5v47.9C119.1,117.6,116.9,119.9,114.1,119.9z"/>
		<path class="st0" d="M114.1,143.2c-9.2,0-16.7-7.5-16.6-16.7c0-9.2,7.5-16.7,16.7-16.6c9.2,0,16.6,7.5,16.6,16.7
			C130.8,135.7,123.3,143.2,114.1,143.2z M114.1,119.9c-3.7,0-6.7,3-6.6,6.7c0,3.7,3,6.7,6.7,6.6c3.7,0,6.7-3,6.7-6.7
			C120.8,122.9,117.8,119.9,114.1,119.9C114.1,119.9,114.1,119.9,114.1,119.9z"/>
		<path class="st1" d="M98.3,16.6H43.4c-2.8,0-5,2.2-5,5s2.2,5,5,5H71c-32.3,15.9-53.4,48.1-55.1,84c-0.1,2.8,2,5.1,4.8,5.2
			c0,0,0,0,0,0h0.2c2.7,0,4.9-2.1,5-4.8c1.9-41.4,32.4-76,73.2-83.2c2.7-0.5,4.5-3,4.1-5.6c0-0.2,0.1-0.4,0.1-0.6
			C103.3,18.8,101.1,16.6,98.3,16.6z"/>
		<path class="st1" d="M157.2,26.6h27.7c2.8,0,5-2.2,5-5s-2.2-5-5-5h-54.9c-2.8,0-5,2.3-5,5c0,1.1,0.4,2.2,1.1,3
			c0.6,1.7,2,3,3.8,3.4c40.2,7.2,70.7,42.1,72.5,83c0.1,2.7,2.3,4.8,5,4.8h0.2c2.8-0.1,4.9-2.5,4.8-5.2c0,0,0,0,0,0
			C210.7,74.2,188.8,42.2,157.2,26.6L157.2,26.6z"/>
		<path class="st0" d="M26,41.6c-11.5,0-20.8-9.3-20.8-20.8S14.5,0,26,0s20.8,9.3,20.8,20.8C46.8,32.3,37.5,41.6,26,41.6z M26,10
			c-6,0-10.8,4.8-10.8,10.8S20,31.6,26,31.6s10.8-4.8,10.8-10.8c0,0,0,0,0,0C36.8,14.8,32,10,26,10z"/>
		<path class="st0" d="M200.6,41.6c-11.5,0-20.8-9.3-20.8-20.8c0-11.5,9.3-20.8,20.8-20.8c11.5,0,20.8,9.3,20.8,20.8
			C221.4,32.3,212.1,41.6,200.6,41.6z M200.6,10c-6,0-10.8,4.8-10.8,10.8s4.8,10.8,10.8,10.8s10.8-4.8,10.8-10.8
			C211.4,14.8,206.6,10,200.6,10z"/>
		<path class="st0" d="M114.1,41.6c-11.5,0-20.8-9.3-20.8-20.8S102.6,0,114.1,0s20.8,9.3,20.8,20.8c0,0,0,0,0,0
			C134.9,32.3,125.6,41.6,114.1,41.6z M114.1,10c-6,0-10.8,4.8-10.8,10.8s4.8,10.8,10.8,10.8s10.8-4.8,10.8-10.8
			C124.9,14.8,120.1,10,114.1,10z"/>
		<path class="st0" d="M20.8,147.3C9.3,147.3,0,138,0,126.5s9.3-20.8,20.8-20.8s20.8,9.3,20.8,20.8C41.6,138,32.3,147.3,20.8,147.3z
			 M20.8,115.7c-6,0-10.8,4.8-10.8,10.8c0,6,4.8,10.8,10.8,10.8s10.8-4.8,10.8-10.8C31.6,120.6,26.8,115.7,20.8,115.7z"/>
		<path class="st0" d="M207.4,147.3c-11.5,0-20.8-9.3-20.8-20.8c0-11.5,9.3-20.8,20.8-20.8c11.5,0,20.8,9.3,20.8,20.8
			C228.2,138,218.9,147.3,207.4,147.3z M207.4,115.7c-6,0-10.8,4.8-10.8,10.8c0,6,4.8,10.8,10.8,10.8s10.8-4.8,10.8-10.8
			C218.2,120.6,213.4,115.7,207.4,115.7z"/>
	</g>
</g>
</svg>
