<?xml version="1.0" encoding="utf-8"?>
<!-- Generator: Adobe Illustrator 25.4.7, SVG Export Plug-In . SVG Version: 6.00 Build 0)  -->
<svg version="1.1" id="Layer_1" xmlns="http://www.w3.org/2000/svg" xmlns:xlink="http://www.w3.org/1999/xlink" x="0px" y="0px"
	 viewBox="0 0 181.6 57.8" style="enable-background:new 0 0 181.6 57.8;" xml:space="preserve">
<style type="text/css">
	.st0{fill:none;stroke:#E4E5E6;stroke-miterlimit:10;}
	.st1{fill:none;stroke:#E4E5E6;stroke-width:2.2677;stroke-miterlimit:10;}
	.st2{fill:#E4E5E6;}
	.st3{font-family:'AngleciaProDisplay-Regular';}
	.st4{font-size:23.3394px;}
	.st5{fill:#474647;}
	.st6{fill:#6660E2;}
</style>
<g>
	<g>
		<g>
			<polygon class="st0" points="-32.3,20.6 -45,33.3 -32.3,46.1 -32.3,58.8 -45.1,58.8 -45.1,7.9 -32.3,7.9 			"/>
		</g>
		<g>
			<polygon class="st0" points="-13.2,20.6 -26,33.3 -13.2,46.1 -13.2,58.8 -26,46.1 -38.7,33.3 -26,20.6 -13.2,7.9 			"/>
		</g>
	</g>
</g>
<text transform="matrix(1 0 0 1 -45.0895 90.4716)" class="st2 st3 st4">Karen Yoseff</text>
<g>
	<g>
		<g>
			<g>
				<polygon class="st1" points="21.9,17.5 12.3,27.1 21.9,36.8 21.9,46.4 12.3,46.4 12.3,7.9 21.9,7.9 				"/>
			</g>
			<g>
				<polygon class="st1" points="36.4,17.5 26.7,27.1 36.4,36.8 36.4,46.4 26.7,36.8 17.1,27.1 26.7,17.5 36.4,7.9 				"/>
			</g>
		</g>
	</g>
	<text transform="matrix(1 0 0 1 42.7946 37.1058)" class="st2 st3 st4">Karen Yoseff</text>
</g>
<rect x="-33.8" y="-31.4" class="st5" width="16.9" height="10.8"/>
<rect x="-6.9" y="-31.4" class="st6" width="16.9" height="10.8"/>
</svg>
