<?xml version="1.0" encoding="utf-8"?>
<!-- Generator: Adobe Illustrator 25.4.7, SVG Export Plug-In . SVG Version: 6.00 Build 0)  -->
<svg version="1.1" id="Layer_1" xmlns="http://www.w3.org/2000/svg" xmlns:xlink="http://www.w3.org/1999/xlink" x="0px" y="0px"
	 viewBox="0 0 180.4 409.8" style="enable-background:new 0 0 180.4 409.8;" xml:space="preserve">
<style type="text/css">
	.st0{fill:#1A2E35;}
	.st1{fill:#6660E2;}
</style>
<g id="Layer_2_00000065773209683332110910000009118975622102798523_">
	<g id="Layer_1-2">
		<path class="st0" d="M63.5,409.8c-4.6,0-8.3-3.7-8.3-8.3V155.1c0-4.6,3.7-8.3,8.3-8.3c4.6,0,8.3,3.7,8.3,8.3v246.5
			C71.8,406.1,68.1,409.8,63.5,409.8C63.5,409.8,63.5,409.8,63.5,409.8z"/>
		<path class="st0" d="M114.5,409.8c-4.6,0-8.3-3.7-8.3-8.3V155.1c0-4.6,3.7-8.3,8.3-8.3c4.6,0,8.3,3.7,8.3,8.3v246.5
			C122.8,406.1,119,409.8,114.5,409.8z"/>
		<path class="st1" d="M179.4,151L97.4,4.2c-2.2-4-7.3-5.4-11.3-3.2c-1.3,0.7-2.4,1.9-3.2,3.2L1,151c-0.7,1.2-1,2.6-1,4v246.5
			c0,4.6,3.7,8.3,8.3,8.3h163.8c4.6,0,8.3-3.7,8.3-8.3V155.1C180.4,153.7,180.1,152.3,179.4,151L179.4,151z M58.9,81.4h62.7
			l36.5,65.4H22.4L58.9,81.4z M90.2,25.3l22.1,39.6H68.1L90.2,25.3z M16.6,393.3V163.4h147.3v229.9L16.6,393.3z"/>
	</g>
</g>
</svg>
