<?xml version="1.0" encoding="utf-8"?>
<!-- Generator: Adobe Illustrator 25.4.7, SVG Export Plug-In . SVG Version: 6.00 Build 0)  -->
<svg version="1.1" id="Layer_1" xmlns="http://www.w3.org/2000/svg" xmlns:xlink="http://www.w3.org/1999/xlink" x="0px" y="0px"
	 viewBox="0 0 419.1 342.3" style="enable-background:new 0 0 419.1 342.3;" xml:space="preserve">
<style type="text/css">
	.st0{fill:#1A2E35;}
	.st1{fill:#6660E2;}
</style>
<g id="Layer_2_00000163032048154131668770000013040648159131835557_">
	<g id="Layer_1-2">
		<path class="st0" d="M393.7,0H25.3C11.4,0,0,11.4,0,25.3v212.1c0,14,11.3,25.3,25.3,25.4h368.4c14,0,25.3-11.4,25.4-25.4V25.3
			C419,11.3,407.7,0,393.7,0z M409.1,237.5c0,8.5-6.9,15.3-15.4,15.4H25.3c-8.5,0-15.3-6.9-15.3-15.4V25.3C10,16.9,16.9,10,25.3,10
			h368.4c8.5,0,15.3,6.9,15.4,15.3V237.5z"/>
		<path class="st0" d="M292.2,309.8H243v-31.9c0-2.8-2.2-5-5-5s-5,2.2-5,5v32h-46.9v-32c0-2.8-2.2-5-5-5s-5,2.2-5,5v32h-49.2
			c-9,0.2-16.1,7.7-15.9,16.7c0.2,8.7,7.2,15.7,15.9,15.9h165.3c9-0.2,16.1-7.7,15.9-16.7C307.8,317,300.9,310,292.2,309.8
			L292.2,309.8z M292.2,332.3H126.9c-3.5,0-6.3-2.8-6.3-6.3c0-3.5,2.8-6.3,6.3-6.3h165.3c3.5,0,6.3,2.8,6.3,6.3
			C298.5,329.5,295.7,332.3,292.2,332.3C292.2,332.3,292.2,332.3,292.2,332.3z"/>
		<path class="st1" d="M249.2,148.8h-55.7c-2.3,0-4.1-1.8-4.1-4.1V89c0-2.2,1.9-4,4.1-4h55.7c2.2,0,4,1.8,4.1,4v55.7
			C253.3,146.9,251.5,148.8,249.2,148.8L249.2,148.8z M197.6,140.6h47.5V93.1h-47.5V140.6z"/>
		<path class="st1" d="M126.8,195.9H87.6c-2.3,0-4.1-1.8-4.1-4.1s1.8-4.1,4.1-4.1h39.2c2.3,0,4.1,1.8,4.1,4.1S129,195.9,126.8,195.9
			L126.8,195.9z"/>
		<path class="st1" d="M126.8,213.8H87.6c-2.3,0-4.1-1.8-4.1-4.1s1.8-4.1,4.1-4.1h39.2c2.3,0,4.1,1.8,4.1,4.1S129,213.8,126.8,213.8
			L126.8,213.8z"/>
		<path class="st1" d="M126.8,231.7H87.6c-2.3,0-4.1-1.8-4.1-4.1s1.8-4.1,4.1-4.1h39.2c2.3,0,4.1,1.8,4.1,4.1S129,231.7,126.8,231.7
			L126.8,231.7z"/>
		<path class="st1" d="M334.5,195.9h-39.2c-2.3,0-4.1-1.8-4.1-4.1s1.8-4.1,4.1-4.1h39.2c2.3,0,4.1,1.8,4.1,4.1
			S336.8,195.9,334.5,195.9z"/>
		<path class="st1" d="M334.5,213.8h-39.2c-2.3,0-4.1-1.8-4.1-4.1s1.8-4.1,4.1-4.1h39.2c2.3,0,4.1,1.8,4.1,4.1
			S336.8,213.8,334.5,213.8z"/>
		<path class="st1" d="M334.5,231.7h-39.2c-2.3,0-4.1-1.8-4.1-4.1s1.8-4.1,4.1-4.1h39.2c2.3,0,4.1,1.8,4.1,4.1
			S336.8,231.7,334.5,231.7z"/>
		<path class="st1" d="M181.1,234c-13.4,0-24.3-10.9-24.3-24.3s10.9-24.3,24.3-24.3c13.4,0,24.3,10.9,24.3,24.3c0,0,0,0,0,0l0,0
			C205.4,223.1,194.5,234,181.1,234z M181.1,193.6c-8.9,0-16.1,7.2-16.1,16.1s7.2,16.1,16.1,16.1s16.1-7.2,16.1-16.1c0,0,0,0,0,0
			l0,0C197.2,200.9,190,193.7,181.1,193.6L181.1,193.6z"/>
		<path class="st1" d="M241,234c-13.4,0-24.3-10.9-24.3-24.3c0-13.4,10.9-24.3,24.3-24.3c13.4,0,24.3,10.9,24.3,24.3l0,0
			C265.2,223.1,254.4,234,241,234z M241,193.6c-8.9,0-16.1,7.2-16.1,16.1s7.2,16.1,16.1,16.1s16.1-7.2,16.1-16.1c0,0,0,0,0,0l0,0
			C257.1,200.9,249.9,193.6,241,193.6L241,193.6z"/>
		<path class="st1" d="M334.5,148.8h-55.7c-2.3,0-4.1-1.8-4.1-4.1c0,0,0,0,0,0V89c0-2.2,1.9-4,4.1-4h55.7c2.2,0,4,1.8,4.1,4v55.7
			C338.6,146.9,336.8,148.8,334.5,148.8C334.5,148.8,334.5,148.8,334.5,148.8z M282.9,140.6h47.5V93.1h-47.5L282.9,140.6z"/>
		<path class="st0" d="M87.2,51.5c6.5,0,11.8-5.3,11.8-11.8c0-6.5-5.3-11.8-11.8-11.8c-6.5,0-11.8,5.3-11.8,11.8
			C75.3,46.3,80.6,51.5,87.2,51.5z M87.2,36c2,0,3.7,1.6,3.7,3.7c0,2-1.6,3.7-3.7,3.7s-3.7-1.6-3.7-3.7l0,0
			C83.5,37.7,85.1,36,87.2,36C87.1,36,87.1,36,87.2,36L87.2,36z"/>
		<path class="st0" d="M117.4,51.5c6.5,0,11.8-5.3,11.8-11.8c0-6.5-5.3-11.8-11.8-11.8s-11.8,5.3-11.8,11.8v0
			C105.5,46.2,110.8,51.5,117.4,51.5z M117.4,36c2,0,3.7,1.6,3.7,3.7c0,2-1.6,3.7-3.7,3.7s-3.7-1.6-3.7-3.7l0,0
			C113.7,37.7,115.3,36,117.4,36C117.4,36,117.4,36,117.4,36L117.4,36z"/>
		<path class="st0" d="M147.6,51.5c6.5,0,11.8-5.3,11.8-11.8c0-6.5-5.3-11.8-11.8-11.8c-6.5,0-11.8,5.3-11.8,11.8v0
			C135.7,46.2,141,51.5,147.6,51.5z M147.6,36c2,0,3.7,1.6,3.7,3.7c0,2-1.6,3.7-3.7,3.7s-3.7-1.6-3.7-3.7c0,0,0,0,0,0l0,0
			C143.9,37.7,145.5,36,147.6,36C147.5,36,147.6,36,147.6,36L147.6,36z"/>
		<path class="st0" d="M290,43.8h47.4c2.3-0.1,4-2,3.9-4.3c-0.1-2.1-1.8-3.8-3.9-3.9H290c-2.3-0.1-4.2,1.6-4.3,3.9
			c-0.1,2.3,1.6,4.2,3.9,4.3C289.7,43.8,289.9,43.8,290,43.8z"/>
		<path class="st0" d="M231.9,131.3c2.3,0,4.1-1.8,4.1-4.1c0-1.1-0.4-2.1-1.2-2.9l-7.7-7.7l7.7-7.7c1.6-1.6,1.7-4.2,0.1-5.8
			c-1.6-1.6-4.2-1.7-5.8-0.1l0,0l-0.1,0.1l-7.7,7.7l-7.7-7.7c-1.8-1.4-4.3-1.1-5.7,0.6c-1.2,1.5-1.2,3.6,0,5.1l7.7,7.7l-7.7,7.7
			c-1.6,1.6-1.7,4.2-0.1,5.8s4.2,1.7,5.8,0.1l0.1-0.1l7.7-7.7l7.7,7.7C229.9,130.9,230.9,131.3,231.9,131.3L231.9,131.3z"/>
		<path class="st0" d="M152.7,122.2c-1.3-1.9-3.8-2.3-5.7-1.1c0,0,0,0,0,0c-0.4,0.2-0.7,0.6-1,0.9l-13.2,17.8l-12-17.6
			c-1.3-1.9-3.8-2.3-5.7-1.1c0,0,0,0,0,0c-0.4,0.3-0.7,0.6-1,0.9l-29.9,40.3c-1.3,1.8-1,4.4,0.8,5.7c1.8,1.3,4.4,1,5.7-0.9l0,0
			l26.5-35.7l10.4,15.2l-11.6,15.6c-1.3,1.8-1,4.4,0.8,5.7c1.8,1.3,4.4,1,5.7-0.9l0,0l26.5-35.7l11.4,16.6c1.3,1.9,3.8,2.3,5.7,1.1
			s2.3-3.8,1.1-5.7l0,0L152.7,122.2z"/>
		<path class="st0" d="M116.6,118.7c6.4,0,11.6-5.2,11.6-11.6s-5.2-11.6-11.6-11.6s-11.6,5.2-11.6,11.6c0,0,0,0,0,0
			C104.9,113.5,110.1,118.7,116.6,118.7z M116.6,103.6c1.9,0,3.5,1.5,3.5,3.5s-1.5,3.5-3.5,3.5s-3.5-1.5-3.5-3.5c0,0,0,0,0,0l0,0
			C113.1,105.1,114.6,103.6,116.6,103.6C116.6,103.6,116.6,103.6,116.6,103.6z"/>
		<path class="st0" d="M184,203.5c-1.6-1.6-4.2-1.6-5.8,0l-6.6,6.6c-1.5,1.7-1.4,4.2,0.2,5.8c1.6,1.5,4,1.5,5.6,0l0,0l3.7-3.7
			l3.7,3.7c1.6,1.6,4.2,1.6,5.8,0c1.6-1.6,1.6-4.2,0-5.8L184,203.5z"/>
		<path class="st0" d="M244.7,203.6l-3.7,3.7l-3.7-3.7c-1.6-1.6-4.2-1.6-5.8,0c-1.6,1.6-1.6,4.2,0,5.8l0,0l6.6,6.6
			c1.6,1.6,4.2,1.6,5.8,0c0,0,0,0,0,0l0,0l6.6-6.6c1.6-1.6,1.6-4.2,0-5.8S246.2,202,244.7,203.6L244.7,203.6z"/>
		<path class="st0" d="M316.5,107.8l-13.2,13.2l-6.4-6.4c-1.6-1.6-4.2-1.6-5.8,0c-1.6,1.6-1.6,4.2,0,5.8l9.3,9.3
			c1.6,1.6,4.2,1.6,5.8,0c0,0,0,0,0,0l0,0l16.1-16.1c1.6-1.6,1.7-4.2,0.1-5.8c-1.6-1.6-4.2-1.7-5.8-0.1L316.5,107.8z"/>
		<path class="st1" d="M334.5,169h-141c-2.3,0-4.1-1.8-4.1-4.1s1.8-4.1,4.1-4.1h141c2.3,0,4.1,1.8,4.1,4.1S336.8,169,334.5,169z"/>
		<path class="st1" d="M163.9,169H87.6c-2.3,0-4.1-1.8-4.1-4.1l0,0V88.5c0-2.2,1.8-4.1,4.1-4.1c0,0,0,0,0,0h76.4
			c2.2,0,4.1,1.8,4.1,4.1v76.4C168,167.1,166.2,169,163.9,169C164,169,163.9,169,163.9,169z M91.7,160.8h68.2V92.6H91.7V160.8z"/>
	</g>
</g>
</svg>
